<svg width="67" height="51" viewBox="0 0 67 51" fill="none" xmlns="http://www.w3.org/2000/svg"> <path d="M12.4546 13.084H18.6694V22.258C18.6694 24.9705 17.9156 26.9814 16.416 28.2753C14.9164 29.5692 12.5989 30.2161 9.47143 30.2161C6.34395 30.2161 4.02641 29.5692 2.52682 28.2753C1.02724 26.9814 0.273438 24.9783 0.273438 22.258V13.084H6.4883V22.7491C6.4883 23.6688 6.72085 24.3391 7.18597 24.76C7.65108 25.1809 8.4129 25.3914 9.47143 25.3914C10.53 25.3914 11.2918 25.1809 11.7569 24.76C12.222 24.3391 12.4546 23.6688 12.4546 22.7491V13.084Z" fill="#FFFFFF"></path> <path d="M31.6035 24.4327V29.7952H25.3887V13.084H40.2241V17.5346H31.6035V19.9898H39.743V24.4405H31.6035V24.4327Z" fill="#FFFFFF"></path> <path d="M66.2085 21.4386C66.2085 23.2313 65.7996 24.7902 64.9656 26.1075C64.1396 27.4248 62.9287 28.438 61.3409 29.1473C59.7531 29.8566 57.8445 30.2152 55.6072 30.2152C53.4741 30.2152 51.6217 29.88 50.0579 29.1941C48.4942 28.516 47.2833 27.5183 46.4333 26.201C45.5832 24.8838 45.1582 23.2937 45.1582 21.4386C45.1582 19.6459 45.5752 18.087 46.4012 16.7698C47.2271 15.4525 48.4381 14.4392 50.0258 13.7299C51.6136 13.0207 53.5222 12.6621 55.7596 12.6621C57.8927 12.6621 59.7451 12.9973 61.3088 13.6832C62.8726 14.3613 64.0835 15.359 64.9335 16.6762C65.7835 17.9935 66.2085 19.5836 66.2085 21.4386ZM59.7531 21.4386C59.7531 20.1759 59.3922 19.2016 58.6785 18.5157C57.9648 17.8298 56.9624 17.4869 55.6794 17.4869C54.3963 17.4869 53.3939 17.8298 52.6802 18.5157C51.9665 19.2016 51.6056 20.1759 51.6056 21.4386C51.6056 22.7013 51.9665 23.6756 52.6802 24.3615C53.3939 25.0475 54.3963 25.3904 55.6794 25.3904C56.9624 25.3904 57.9648 25.0475 58.6785 24.3615C59.3922 23.6756 59.7531 22.7013 59.7531 21.4386Z" fill="#FFFFFF"></path> <path d="M10.301 29.5918C10.1326 29.28 10.0845 28.9058 10.0765 28.5473C10.0765 28.142 9.98023 27.7289 10.1406 27.3314C10.1727 27.2456 10.1085 27.1599 10.0925 27.0819C10.0524 26.9027 9.99626 26.7156 10.1246 26.5441C10.2128 26.4272 10.1486 26.3259 10.0845 26.2401C9.9722 26.0687 9.9722 25.905 10.0684 25.7179C10.1246 25.6088 10.1967 25.4919 10.1486 25.3594C9.94013 25.3828 9.70757 25.3906 9.467 25.3906C9.29859 25.3906 9.13821 25.3828 8.98585 25.375C8.98585 25.64 8.97783 25.905 8.96981 26.1778C8.96179 26.739 8.96981 27.2924 8.96179 27.8536C8.96179 28.0952 8.86556 28.3524 9.13821 28.5317C9.17831 28.5551 9.17029 28.6486 9.18632 28.7032C9.29859 29.1475 9.33869 29.6073 9.33869 30.0672C9.33869 30.114 9.33869 30.1685 9.33869 30.2231C9.37879 30.2231 9.41888 30.2231 9.45898 30.2231C9.78776 30.2231 10.1085 30.2153 10.4133 30.1997V30.1919C10.4534 29.9737 10.4133 29.7944 10.301 29.5918Z" fill="#FFFFFF"></path> <path d="M11.5831 19.4197C11.5912 19.4431 11.5912 19.4587 11.5912 19.4821V19.334C11.5749 19.3418 11.5668 19.373 11.5831 19.4197Z" fill="#FFFFFF"></path> <path d="M13.1306 13.084H12.457V14.3311C12.5372 14.144 12.6415 13.957 12.7377 13.7777C12.874 13.5439 13.0023 13.31 13.1306 13.084Z" fill="#FFFFFF"></path> <path d="M12.5149 29.139C12.3785 28.9052 12.2101 28.6792 12.2502 28.383C12.2582 28.305 12.2182 28.2505 12.162 28.1881C11.9535 27.9309 11.8653 27.6503 11.9295 27.3229C11.9535 27.2216 12.0097 27.0969 11.8092 27.0813C11.729 27.0735 11.729 26.9878 11.7129 26.9332C11.5927 26.6448 11.4964 26.3486 11.5125 26.029C11.5205 25.9043 11.5205 25.7718 11.4563 25.6627C11.3521 25.4756 11.32 25.273 11.2639 25.0781C11.0393 25.1795 10.7827 25.2574 10.494 25.312C10.494 25.4055 10.494 25.499 10.486 25.5926C10.478 25.7017 10.5021 25.8108 10.5021 25.9277C10.5021 26.068 10.5341 26.0914 10.6223 25.9667C10.6464 25.9901 10.6865 26.0213 10.6865 26.0446C10.7266 26.372 10.9271 26.676 10.8389 27.0267C10.8148 27.1125 10.8308 27.1982 10.911 27.2606C11.1917 27.4788 11.1917 27.7984 11.2398 28.1024C11.2559 28.1725 11.2077 28.2816 11.2398 28.3206C11.5205 28.6246 11.5606 29.0299 11.745 29.3806C11.7931 29.4664 11.8493 29.5521 11.8894 29.6379C11.9455 29.7704 11.9696 29.9107 12.0177 30.0432C12.2903 30.0042 12.555 29.9574 12.8116 29.9029C12.6913 29.6612 12.6512 29.3729 12.5149 29.139Z" fill="#FFFFFF"></path> <path d="M15.7614 29.7786C15.9619 29.8176 16.0341 29.6695 16.1303 29.5604C16.1463 29.537 16.1624 29.5214 16.1864 29.498C16.0261 29.5994 15.8657 29.6929 15.6973 29.7786C15.7133 29.7708 15.7293 29.7708 15.7614 29.7786Z" fill="#FFFFFF"></path> <path d="M50.3 29.2951C50.2679 29.2483 50.2439 29.2015 50.2358 29.1392C50.2358 29.1158 50.1877 29.0768 50.1556 29.069C49.7226 28.9755 49.4981 28.6481 49.2575 28.3286C49.1533 28.1883 49.1212 28.0636 49.2254 27.9233C49.5703 27.4634 49.5462 26.8632 49.8429 26.38C49.9712 26.1773 49.883 25.8967 50.0193 25.6707C50.2439 25.3043 50.3 24.8834 50.3561 24.4625C50.3722 24.369 50.3882 24.2599 50.4443 24.1819C50.6127 23.9325 50.6288 23.6519 50.6609 23.3635C50.709 22.9738 50.7731 22.5841 50.9415 22.2255C51.0458 21.9995 51.0217 21.7657 51.0297 21.5318C50.9977 21.0797 51.1099 20.6433 51.142 20.199C51.1741 19.7469 51.2463 19.287 51.2783 18.835C51.2783 18.7882 51.2944 18.7414 51.3104 18.6947C51.4628 18.7726 51.4788 18.5621 51.5911 18.5621C51.6151 18.5621 51.6552 18.5699 51.6552 18.5855C51.7595 18.835 52.1123 18.835 52.2487 19.0454C52.377 18.8505 52.5293 18.6713 52.6977 18.5076C52.7218 18.4842 52.7458 18.4686 52.7699 18.4452C52.4331 18.2504 52.1284 17.9854 51.8156 17.7593C51.543 17.5645 51.3906 17.2605 51.3505 16.9331C51.2463 15.9588 51.15 14.9845 51.0538 14.018C51.0297 13.7998 51.0458 13.5737 51.0378 13.3555C50.7651 13.449 50.5005 13.5425 50.2519 13.6517C50.2679 13.6984 50.2759 13.753 50.292 13.7997C50.3962 14.283 50.4123 14.7585 50.4042 15.2417C50.4042 15.6782 50.4042 16.1225 50.4042 16.559C50.4042 16.6759 50.2038 16.7616 50.1075 16.6603C49.899 16.4421 49.5783 16.4187 49.3698 16.216C49.2896 16.1381 49.1773 16.0991 49.065 16.0757C48.8806 16.029 48.6881 15.99 48.5919 15.7951C48.5358 15.686 48.4315 15.6938 48.3273 15.686C48.1108 15.6626 47.9023 15.6159 47.7339 15.46C47.6857 15.421 47.6376 15.3898 47.5815 15.3742C47.373 15.5769 47.1805 15.7873 46.9961 16.0056C47.1886 16.0212 47.365 16.0679 47.5093 16.216C47.5334 16.2394 47.5735 16.2784 47.6055 16.2784C47.9825 16.294 48.223 16.598 48.5759 16.6759C48.6962 16.6993 48.8004 16.7928 48.8966 16.8708C49.033 16.9877 49.2094 17.0344 49.3537 17.1124C49.6986 17.3072 50.0995 17.432 50.3 17.8139C50.4123 18.0243 50.4604 18.227 50.4443 18.4842C50.3962 19.1545 50.4123 19.8248 50.4042 20.4874C50.3962 20.9394 50.2679 21.3603 50.1556 21.789C50.1075 21.9605 50.0514 22.1242 50.0594 22.2957C50.0755 22.623 49.9712 22.9348 49.9472 23.2544C49.9391 23.3167 49.9311 23.3869 49.891 23.4259C49.6504 23.6909 49.6585 24.0182 49.6504 24.3378C49.6504 24.4391 49.6424 24.5405 49.6023 24.6262C49.3938 25.0627 49.3377 25.546 49.1853 25.998C49.1613 26.0682 49.1292 26.1383 49.0811 26.1929C48.9528 26.3176 48.9207 26.4735 48.9127 26.6372C48.8966 26.8632 48.8325 27.0581 48.6641 27.2451C48.5679 27.3543 48.4476 27.4946 48.5197 27.6816C48.5518 27.7752 48.5197 27.8843 48.4155 27.9388C48.3193 27.9934 48.2471 27.9077 48.1749 27.8687C47.9825 27.7674 47.79 27.6738 47.5975 27.5803C48.2952 28.2428 49.1212 28.7884 50.0915 29.2093C50.1396 29.2327 50.2198 29.2639 50.3 29.2951Z" fill="#FFFFFF"></path> <path d="M55.9456 30.207C56.2984 30.1992 56.6513 30.1836 56.9881 30.1602C56.9881 30.1368 56.9881 30.1057 56.9961 30.0823C57.0202 29.3184 57.0362 28.5468 57.365 27.8297C57.389 27.7751 57.373 27.705 57.381 27.6426C57.381 27.1983 57.381 26.7463 57.381 26.302C57.381 25.9123 57.381 25.5225 57.373 25.1328C56.964 25.2731 56.5069 25.3511 56.0097 25.3744C56.0017 25.4602 55.9937 25.5459 55.9937 25.6317C55.9857 26.0603 55.8654 26.4657 55.7211 26.8632C55.6569 27.0424 55.6008 27.2139 55.6008 27.401C55.6008 27.4789 55.5927 27.5491 55.5847 27.627C55.5446 27.931 55.288 28.157 55.2239 28.4299C55.1597 28.7027 55.1677 28.9911 54.9993 29.2327C54.9031 29.373 54.847 29.5133 54.8229 29.677C54.7908 29.8562 54.7267 30.0199 54.6465 30.1758C54.9272 30.1914 55.2078 30.1992 55.4965 30.1992C55.5206 30.1212 55.5286 30.0355 55.5446 29.9576C55.5607 29.8952 55.5607 29.8329 55.5767 29.7783C55.6088 29.6692 55.705 29.6224 55.8093 29.6302C55.9215 29.6302 55.9536 29.7159 55.9616 29.8095C55.9696 29.8796 55.9616 29.9576 55.9616 30.0355C55.9616 30.0979 55.9536 30.1524 55.9456 30.207Z" fill="#FFFFFF"></path> <path d="M39.5945 20.5027C39.6346 21.3523 39.4983 22.1863 39.3219 23.0125C39.2337 23.4412 39.2016 23.8699 39.1936 24.3064C39.1936 24.3532 39.1936 24.3999 39.1855 24.4389H39.7309V19.9883H39.6346C39.6266 20.0117 39.6266 20.0428 39.6186 20.0662C39.6106 20.2065 39.5945 20.3624 39.5945 20.5027Z" fill="#FFFFFF"></path> <path d="M39.8616 18.3672C39.8376 18.6322 39.8055 18.8894 39.7734 19.1544H40.5433C40.5593 18.8972 40.5673 18.6322 40.5513 18.3672H40.2305H39.8616Z" fill="#FFFFFF"></path> <path d="M36.2505 24.4093C35.3043 24.4405 34.366 24.3469 33.4278 24.2924C32.8825 24.2612 32.3292 24.2768 31.7839 24.308C31.1263 24.3469 30.4607 24.3781 29.8031 24.4093C29.7229 24.4093 29.6508 24.4093 29.5706 24.4093C29.3059 24.3859 29.2658 24.3469 29.2017 24.0741C29.0734 23.5129 29.0333 22.9439 29.0493 22.3749C29.0734 21.5877 28.929 20.8161 28.8649 20.0444C28.8248 19.5378 28.7767 19.0311 28.7606 18.5245C28.7125 16.95 28.6724 15.3755 28.7446 13.8089C28.7606 13.4971 28.7606 13.4971 29.0734 13.4425C29.1135 13.4347 29.1456 13.4269 29.1856 13.4269C29.9555 13.4737 30.7093 13.31 31.4711 13.2555C32.2249 13.2009 33.0028 13.2009 33.7486 13.388C33.8368 13.4113 33.925 13.4191 34.0132 13.4113C34.4542 13.349 34.9033 13.3958 35.3524 13.3724C35.7614 13.3568 36.1703 13.3802 36.5713 13.4737C36.7076 13.5049 36.852 13.5205 36.9883 13.5127C37.1968 13.5127 37.3812 13.5594 37.5737 13.653C37.9346 13.8322 38.3435 13.7621 38.7365 13.8011C38.9851 13.8322 39.2417 13.8167 39.4903 13.9024C39.8271 14.0115 39.9634 14.1674 39.9714 14.5182C39.9795 14.9858 39.9714 15.4613 39.9714 16.116C39.9795 16.4979 39.9875 17.0124 39.9474 17.5346H40.228V13.084H39.8752C39.795 13.1697 39.6587 13.1931 39.4342 13.1619C39.2337 13.1385 39.0332 13.1152 38.8327 13.084H25.4487C25.4327 13.084 25.4086 13.0918 25.3926 13.0918V13.8011C25.5449 13.7855 25.6893 13.7699 25.8416 13.7699C26.1785 13.7621 26.5072 13.7465 26.82 13.6452C27.1408 13.5361 27.4695 13.5205 27.7983 13.5049C27.9427 13.4971 28.0148 13.5516 28.0148 13.6919C28.0148 13.7933 28.0148 13.8868 28.0148 13.9881C28.0148 15.0014 28.0148 16.0225 28.0148 17.0358C28.0148 17.0358 28.0148 17.0358 28.0229 17.0358C28.0229 17.8308 28.0309 18.6258 28.0229 19.4131C28.0148 20.3796 28.1672 21.3383 28.2875 22.297C28.3517 22.8114 28.3276 23.3337 28.4158 23.8481C28.4318 23.9572 28.4238 24.0741 28.3998 24.1832C28.3517 24.4171 28.2073 24.5262 27.9587 24.573C27.4695 24.6587 26.9804 24.7289 26.4832 24.7444C26.2186 24.7522 25.9619 24.8536 25.7053 24.9159C25.6011 24.9393 25.4968 24.9705 25.3926 24.9939V25.7265C25.8176 25.6876 26.2266 25.5551 26.6436 25.4849C27.1087 25.407 27.5738 25.3368 28.0469 25.368C28.2394 25.3836 28.3517 25.4537 28.4158 25.633C28.5441 26.0227 28.6644 26.4125 28.6484 26.8334C28.6403 26.9347 28.6403 27.036 28.6644 27.1295C28.8408 27.7765 28.8087 28.4312 28.7927 29.0859C28.7847 29.3354 28.8248 29.577 28.8729 29.8108H29.763C29.731 29.499 29.6828 29.1951 29.6347 28.8833C29.4743 27.8154 29.33 26.7476 29.3781 25.6642C29.3941 25.2823 29.5545 25.1264 29.9395 25.1264C30.3083 25.1342 30.6772 25.0874 31.0461 25.0406C31.2305 25.0173 31.423 25.0017 31.6074 24.9939V24.4405H36.7477C36.5793 24.4171 36.4189 24.4015 36.2505 24.4093Z" fill="#FFFFFF"></path> <path d="M16.9004 28.9766C16.8763 29.0001 16.8522 29.0158 16.8281 29.0314C16.8362 29.0314 16.8362 29.0314 16.8442 29.0314C16.8603 29.0314 16.8844 29.0079 16.9004 28.9766Z" fill="#FFFFFF"></path> <path d="M16.132 28.3905C16.0999 28.4684 16.0598 28.5308 16.0117 28.5931C16.132 28.5074 16.2523 28.4138 16.3646 28.3203C16.3405 28.3203 16.3245 28.3203 16.3004 28.3281C16.2363 28.3281 16.1561 28.3359 16.132 28.3905Z" fill="#FFFFFF"></path> <path d="M13.7651 12.2489C13.7651 12.2255 13.7651 12.2099 13.757 12.1788C13.749 12.1164 13.749 12.0307 13.8052 12.0073C14.0457 11.9293 14.0938 11.6877 14.2462 11.5474C14.4066 11.4071 14.5349 11.2278 14.7033 11.1109C14.9599 10.9316 15.1363 10.6822 15.3529 10.4718C15.4812 10.3549 15.6335 10.2769 15.7859 10.1912C16.0184 10.0665 16.2109 9.85602 16.4114 9.66895C16.4916 9.59101 16.5637 9.50527 16.676 9.47409C16.8123 9.42732 16.9166 9.34938 17.0048 9.23246C17.077 9.13114 17.1732 9.0376 17.3256 9.06878C17.3817 9.07658 17.4378 9.06099 17.4619 9.01422C17.6143 8.71024 17.9992 8.69465 18.2077 8.46081C18.2879 8.36728 18.4242 8.25816 18.5685 8.41405C18.6968 8.54655 18.6728 8.67906 18.5685 8.81936C18.5124 8.88951 18.4643 8.95966 18.3921 9.00642C18.3199 9.05319 18.2959 9.13113 18.3199 9.20128C18.4082 9.50527 18.2237 9.7469 18.1355 10.0119C18.1275 10.0353 18.1034 10.0509 18.0954 10.0743C17.943 10.7056 17.6544 11.3058 17.5982 11.9605C17.5902 12.054 17.5742 12.1398 17.5581 12.2333H18.2478C18.3039 11.9839 18.3921 11.7345 18.5044 11.4928C18.5846 11.3136 18.5846 11.1109 18.6247 10.9161C18.6728 10.69 18.6968 10.4484 18.8813 10.2691C18.9374 10.2146 18.9615 10.1444 18.9535 10.0665C18.9294 9.73131 19.0497 9.44291 19.2742 9.1857C19.3223 9.12334 19.3544 9.06099 19.3624 8.98304C19.3705 8.72583 19.4667 8.49979 19.6672 8.32831C19.6912 8.30493 19.7233 8.26595 19.7233 8.23478C19.6832 7.93079 19.8757 7.7827 20.1082 7.61902C20.3167 7.47092 20.4691 7.24488 20.7658 7.2215C20.838 7.21371 20.9262 7.18253 20.9743 7.13576C21.1587 6.95649 21.3753 6.87855 21.6319 6.89414C21.7522 6.90193 21.8243 6.83178 21.8885 6.75384C21.9767 6.64471 22.089 6.53559 22.2253 6.52C22.538 6.49662 22.8107 6.35632 23.0833 6.22381C23.1154 6.20823 23.1555 6.18484 23.1956 6.19264C23.5324 6.2394 23.797 6.08351 24.0537 5.90424C24.2301 5.77953 24.4466 5.73277 24.6711 5.75615C24.7353 5.76394 24.8075 5.76394 24.8556 5.73276C25.2966 5.50673 25.7698 5.45217 26.2509 5.39761C26.5717 5.35863 26.8523 5.17157 27.1972 5.1248C27.6382 5.07024 28.0873 5.07024 28.5284 5.00788C28.6647 4.9923 28.7128 5.06244 28.7529 5.15598C28.801 5.24951 28.785 5.35084 28.7609 5.45217C28.6727 5.86527 28.5845 6.27838 28.4963 6.68369C28.4722 6.8006 28.4161 6.92531 28.4161 7.04223C28.4161 7.96977 28.2798 8.8973 28.1675 9.80925C28.0632 10.6121 28.0231 11.4149 28.0231 12.2177H28.785C28.7689 12.1476 28.7609 12.0696 28.7689 11.9761C28.8411 10.729 29.0817 9.48968 29.0576 8.23478C29.0496 7.74373 29.1779 7.26047 29.3062 6.77722C29.3303 6.68369 29.3704 6.58236 29.3623 6.48882C29.3223 6.12249 29.4345 5.77174 29.5388 5.42878C29.635 5.10142 29.8355 4.8442 30.2284 4.78185C30.5091 4.73508 30.7817 4.69611 31.0624 4.69611C31.7761 4.7039 32.4898 4.69611 33.2035 4.69611C33.5965 4.69611 33.9974 4.7117 34.3904 4.69611C35.2324 4.64934 36.0824 4.7117 36.9004 4.87538C37.5178 5.00009 38.1433 4.95332 38.7528 5.09362C39.1137 5.17936 39.3222 5.3976 39.4344 5.70159C39.5387 5.99778 39.6189 6.31735 39.5948 6.65251C39.5868 6.76163 39.5788 6.88634 39.6189 6.98767C39.8033 7.44754 39.8033 7.93859 39.8915 8.40625C39.9316 8.64009 39.9717 8.87392 39.9717 9.10775C39.9717 10.1444 39.9717 11.1811 39.9717 12.2177H40.2283H40.7656V12.2099C40.6854 11.4539 40.7175 10.6978 40.7015 9.94175C40.6934 9.62998 40.6854 9.326 40.6373 9.01422C40.5651 8.60111 40.525 8.18022 40.5651 7.75152C40.6052 7.26047 40.4288 6.8006 40.3085 6.33294C40.2604 6.13808 40.2363 5.94322 40.2444 5.74835C40.2524 5.49114 40.3486 5.41319 40.6132 5.45996C40.8538 5.49893 41.0864 5.55349 41.3029 5.67041C41.4152 5.73277 41.5355 5.77953 41.6638 5.76394C42.0808 5.70938 42.4416 5.85748 42.7784 6.06793C42.8666 6.12249 42.9388 6.11469 43.027 6.12249C43.3558 6.14587 43.6846 6.20043 43.9572 6.41088C44.0374 6.47324 44.1096 6.48882 44.1978 6.48882C44.4544 6.47324 44.6709 6.56677 44.8634 6.72266C44.9837 6.82399 45.104 6.89414 45.2724 6.88634C45.3285 6.87855 45.3927 6.92531 45.4568 6.92531C45.6974 6.9409 45.7375 7.27606 46.0182 7.24489C46.2668 7.2215 46.4432 7.39298 46.6036 7.54887C46.6517 7.59563 46.6998 7.63461 46.772 7.62681C46.9725 7.60343 47.1088 7.70476 47.2451 7.82947C47.3333 7.90741 47.4295 7.95418 47.5498 7.97756C47.5979 7.98536 47.6701 7.98536 47.6942 8.01653C47.8866 8.29713 48.2796 8.32051 48.4881 8.57773C48.5282 8.63229 48.5923 8.64788 48.6485 8.67126C48.7848 8.71024 48.865 8.79597 48.881 8.93627C48.8971 9.07657 48.9853 9.1857 49.0494 9.31041C49.1537 9.51306 49.314 9.71572 49.2419 9.97293C49.2098 10.0821 49.298 10.16 49.3541 10.2379C49.5145 10.4796 49.6428 10.7368 49.6428 11.033C49.6428 11.1967 49.691 11.3448 49.7631 11.4928C49.9235 11.8202 50.0197 12.171 50.0197 12.5295C50.0197 12.6152 50.0278 12.701 50.0438 12.7867C50.3004 12.6854 50.557 12.5919 50.8297 12.5061C50.8136 12.4672 50.8056 12.4282 50.7896 12.3892C50.6372 11.8826 50.6372 11.3448 50.4047 10.8459C50.2844 10.5887 50.1881 10.2613 50.4047 9.96514C50.6853 10.1522 50.95 10.3237 51.2226 10.503C51.2627 10.5341 51.3108 10.5575 51.3429 10.5965C51.6717 10.9239 52.0085 11.2512 52.3293 11.5786C52.4495 11.7033 52.6019 11.8046 52.6019 12.0073C52.6019 12.0307 52.6099 12.054 52.626 12.0696C52.9628 12.0073 53.3156 11.9605 53.6765 11.9215C53.6123 11.7189 53.4519 11.5864 53.3637 11.4071C53.2755 11.2356 53.1873 11.0875 53.059 10.9316C52.8585 10.6822 52.65 10.425 52.4896 10.1444C52.2571 9.74689 51.9443 9.41174 51.6877 9.02981C51.4792 8.71803 51.0863 8.53097 50.966 8.14124C50.6292 7.93079 50.4448 7.58005 50.148 7.32283C49.8914 7.09679 49.6268 6.87855 49.4263 6.61354C49.2178 6.34073 48.8088 6.26279 48.7046 5.89645C48.6966 5.87306 48.6404 5.84968 48.6084 5.85748C48.4801 5.88865 48.4159 5.81071 48.3518 5.74056C48.0149 5.35863 47.5579 5.1248 47.1729 4.79744C47.0687 4.7117 46.9965 4.58699 46.8682 4.52463C46.2828 4.25183 45.8016 3.81534 45.2403 3.50356C44.9356 3.33208 44.6309 3.14502 44.3261 2.98133C43.9172 2.76309 43.4761 2.615 43.0832 2.35778C43.011 2.31101 42.9228 2.27983 42.8426 2.25645C42.6581 2.20189 42.4737 2.14733 42.3213 2.03041C42.2411 1.96806 42.1449 1.92909 42.0407 1.9135C41.768 1.87452 41.5595 1.71864 41.327 1.58613C41.0944 1.45363 40.7817 1.50819 40.517 1.39906C40.4689 1.38348 40.4208 1.3523 40.3807 1.32892C40.2203 1.212 40.0359 1.16523 39.8434 1.16523C39.5547 1.16523 39.2981 1.0717 39.0575 0.91581C38.9533 0.84566 38.849 0.830072 38.7368 0.837866C38.3117 0.861249 37.9108 0.744333 37.5098 0.619622C37.2131 0.526089 36.9244 0.448144 36.6197 0.44035C36.2669 0.432555 35.898 0.44035 35.5532 0.385789C35.0479 0.307845 34.5427 0.253284 34.0295 0.268873C33.837 0.276667 33.6446 0.276667 33.4601 0.253284C32.8186 0.183134 32.1851 0.268873 31.5516 0.307845C31.0704 0.331228 30.5973 0.424761 30.1081 0.44035C29.6992 0.448144 29.2902 0.479322 28.9213 0.674183C28.8571 0.70536 28.777 0.728744 28.6968 0.72095C28.3519 0.705361 28.0392 0.946988 27.6863 0.830071C27.6462 0.814482 27.5821 0.84566 27.542 0.876838C27.2533 1.08729 26.9325 1.16523 26.5797 1.18862C26.4514 1.19641 26.307 1.212 26.2188 1.28215C26.0103 1.45363 25.7537 1.46142 25.5212 1.54716C25.1122 1.68746 24.7433 1.92129 24.3183 1.99924C24.2862 2.00703 24.2541 2.03041 24.2221 2.0538C23.8933 2.26425 23.5164 2.38896 23.1715 2.56043C22.7465 2.77868 22.3295 3.02031 21.8965 3.22296C21.5276 3.39444 21.2149 3.64386 20.838 3.81534C20.6134 3.91666 20.3889 4.07255 20.1804 4.22065C19.7233 4.54801 19.3223 4.93773 18.7931 5.15598C18.761 5.17157 18.7369 5.20274 18.7129 5.22613C18.5365 5.53011 18.2317 5.69379 17.9511 5.88865C17.8789 5.93542 17.7987 5.9666 17.7345 6.03675C17.486 6.31735 17.2213 6.59015 16.9006 6.79281C16.6199 6.97208 16.5076 7.33842 16.1548 7.43975C16.1387 7.72035 15.8901 7.85285 15.7298 8.03212C15.2566 8.56214 14.8877 9.19349 14.2783 9.61439C14.2382 9.63777 14.1981 9.69233 14.1901 9.73131C14.142 9.92617 14.0537 10.0665 13.9094 10.2224C13.7811 10.3549 13.725 10.5887 13.6047 10.768C13.4042 11.0797 13.1716 11.3759 12.9631 11.6877C12.8509 11.8592 12.7546 12.0385 12.6504 12.2177H13.7651V12.2489ZM39.4104 1.94467C39.6991 2.17851 40.0198 2.1941 40.3566 2.24866C40.5651 2.27984 40.7175 2.45131 40.8939 2.56043C41.0463 2.65397 41.343 2.50587 41.5034 2.65397C41.8322 2.95016 42.2812 2.98133 42.6662 3.1684C43.035 3.34767 43.4119 3.53474 43.7808 3.71401C44.0856 3.8621 44.4143 3.99461 44.679 4.23624C44.8955 4.4311 45.1842 4.55581 45.4488 4.69611C45.6734 4.81302 45.8738 4.96891 46.0903 5.09362C46.1705 5.14039 46.2427 5.19495 46.2587 5.28848C46.2748 5.39761 46.371 5.42878 46.4432 5.49114C46.6196 5.63144 46.796 5.78733 46.9324 5.95101C47.0366 6.08352 47.0767 6.25499 47.2772 6.30955C47.3173 6.31735 47.3654 6.41088 47.3574 6.42647C47.1809 6.62913 47.4616 6.73825 47.4536 6.92531C47.3333 6.92531 47.2932 6.8006 47.197 6.81619C47.0125 6.85516 47.0126 6.86296 46.9725 6.81619C46.8682 6.69928 46.7319 6.64471 46.5795 6.61354C46.4111 6.57456 46.2347 6.55118 46.1064 6.39529C46.0342 6.30176 45.9059 6.27838 45.7936 6.27058C45.545 6.26279 45.3526 6.15367 45.1922 5.98998C45.1361 5.93542 45.0879 5.86527 44.9997 5.90424C44.7191 6.01336 44.5025 5.85748 44.2941 5.73276C44.1176 5.62364 43.9332 5.56129 43.7247 5.53011C43.4119 5.49114 43.0912 5.45996 42.8506 5.21833C42.8025 5.16377 42.7303 5.18716 42.6742 5.19495C42.2652 5.24172 41.9043 5.1248 41.5595 4.91435C41.4713 4.85979 41.367 4.83641 41.2708 4.8442C41.0302 4.852 40.7897 4.81302 40.5491 4.77405C40.0679 4.69611 39.8354 4.45448 39.8033 3.99461C39.8033 3.97123 39.8113 3.94005 39.8033 3.92446C39.5387 3.59709 39.5547 3.1606 39.3542 2.81765C39.242 2.62279 39.1377 2.42793 39.0976 2.20189C39.0415 1.94467 39.2179 1.79658 39.4104 1.94467ZM30.1322 3.48018C30.1402 3.33988 30.1643 3.21517 30.2284 3.09045C30.3647 2.82544 30.5412 2.58382 30.5732 2.27983C30.5893 2.16292 30.6775 2.08497 30.7577 1.99924C30.8299 1.92129 30.878 1.84335 30.902 1.74202C31.0063 1.32892 31.2148 1.16523 31.6558 1.15744C32.4577 1.14185 33.2597 1.15744 34.0696 1.14185C34.8876 1.12626 35.6975 1.2042 36.4914 1.41465C36.7159 1.47701 36.9485 1.44583 37.181 1.45363C37.6221 1.46142 37.9028 1.68746 38.1353 2.03041C38.3839 2.40455 38.4401 2.87221 38.7287 3.22296C38.7688 3.26973 38.7769 3.33988 38.7849 3.40223C38.833 3.67504 38.8571 3.94784 39.0335 4.19726C39.1538 4.36874 39.0736 4.46227 38.841 4.45448C38.7528 4.45448 38.6646 4.4311 38.5764 4.41551C38.0551 4.31418 37.5419 4.18947 37.0126 4.12711C36.9966 4.12711 36.9886 4.11932 36.9725 4.11932C36.307 4.22844 35.6574 4.0102 34.9998 4.0102C33.4842 4.0102 31.9686 4.0102 30.4449 4.0102C30.3327 4.0102 30.2124 4.0102 30.044 4.0102C30.1963 3.83093 30.1242 3.65165 30.1322 3.48018ZM21.0064 5.99778C21.2149 6.04454 21.1908 5.89645 21.2229 5.79512C21.279 5.61585 21.3031 5.4054 21.5677 5.38981C21.5998 5.38981 21.6399 5.34304 21.6479 5.31966C21.7121 4.89097 22.121 4.73508 22.3696 4.45448C22.6423 4.1505 22.955 3.87769 23.2277 3.57371C23.372 3.41782 23.5003 3.24634 23.765 3.31649C23.8532 3.33988 23.8933 3.26193 23.9414 3.19958C24.0617 3.04369 24.2301 2.96574 24.4225 2.92677C24.5749 2.90339 24.7112 2.84883 24.8395 2.7553C25.0641 2.59161 25.3528 2.62279 25.5933 2.53705C25.8339 2.45131 26.0264 2.23307 26.307 2.21748C26.5316 2.20968 26.724 2.12395 26.9245 2.03041C27.2052 1.89791 27.4939 1.81217 27.8066 1.84335C27.975 1.85894 28.1033 1.79658 28.2557 1.70305C28.5203 1.54716 28.8491 1.51598 29.1699 1.46922C29.2421 1.46142 29.3223 1.46142 29.4024 1.46142C29.8756 1.46142 29.9317 1.52378 29.8595 1.98365C29.8515 2.046 29.8515 2.11615 29.8194 2.16292C29.6109 2.4669 29.5388 2.82545 29.4425 3.16061C29.3623 3.449 29.1298 3.66724 29.0897 3.97123C29.0737 4.07255 28.9694 4.10373 28.8812 4.09594C28.4321 4.05696 28.0713 4.36874 27.6302 4.36095C27.5901 4.36095 27.558 4.39213 27.5179 4.39213C26.6679 4.39213 25.9061 4.81302 25.0641 4.8442C24.9037 4.852 24.7754 4.92994 24.6391 4.9923C24.3664 5.11701 24.0938 5.2651 23.765 5.19495C23.6687 5.17157 23.5885 5.19495 23.5244 5.27289C23.4442 5.37422 23.3319 5.45996 23.2116 5.47555C22.8347 5.50673 22.506 5.67041 22.1772 5.8263C22.089 5.86527 21.9927 5.92763 21.8885 5.91204C21.704 5.88086 21.5757 5.94322 21.4474 6.06793C21.271 6.2394 21.263 6.23161 20.87 6.20043C20.8861 6.1069 20.9422 5.98219 21.0064 5.99778ZM17.4459 7.72034C17.4699 7.72034 17.502 7.67358 17.518 7.6424C17.8388 7.03443 18.352 6.60574 18.9615 6.29396C19.0096 6.27058 19.0577 6.26279 19.0818 6.21602C19.2021 5.98219 19.3544 5.81071 19.6591 5.8185C19.6992 5.8185 19.7634 5.76394 19.7714 5.72497C19.8115 5.49893 20.004 5.49893 20.2045 5.45217C20.1644 5.62364 20.3889 5.85748 19.996 5.91983C19.9158 5.93542 19.8676 6.17705 19.8195 6.32514C19.7474 6.5278 19.6591 6.74604 19.4827 6.84737C19.2822 6.96429 19.1058 7.089 18.9615 7.26047C18.9294 7.29944 18.8733 7.33842 18.8332 7.33062C18.5685 7.29944 18.4162 7.53328 18.1916 7.60343C18.1115 7.62681 18.0633 7.75152 17.919 7.68917C17.8228 7.65019 17.7987 7.75152 17.7586 7.81388C17.6544 7.96977 17.526 8.07109 17.3176 8.02433C17.1171 7.98536 16.9968 8.16463 16.8123 8.1958C17.0529 8.07109 17.101 7.71255 17.4459 7.72034Z" fill="#FFFFFF"></path> <path d="M55.7463 31.0487C55.7383 31.0643 55.7383 31.0721 55.7303 31.0877C55.6581 31.2747 55.594 31.4618 55.586 31.6645C55.586 31.7502 55.5619 31.8359 55.5378 31.9217C55.4176 32.3971 55.2091 32.8492 55.1048 33.3325C55.0406 33.6442 54.8161 33.9248 54.768 34.2678C54.752 34.3925 54.6718 34.5172 54.5515 34.6107C54.3991 34.7277 54.343 34.8602 54.3751 35.0628C54.4152 35.2889 54.3189 35.3434 54.1184 35.2811C54.0062 35.2499 54.0142 35.1953 54.0142 35.1252C54.0222 35.0239 54.0543 34.9303 54.0623 34.829C54.0703 34.7432 54.1184 34.6029 53.926 34.6653C53.8779 34.6809 53.8458 34.6341 53.8538 34.603C53.918 34.4003 53.7415 34.26 53.7175 34.0807C53.6854 33.8625 53.6774 33.6364 53.8699 33.4572C53.942 33.387 53.9661 33.2857 54.0062 33.2C54.2067 32.818 54.4152 32.4361 54.6317 32.0698C54.6718 32.0074 54.7199 31.9528 54.7279 31.8749C54.768 31.6255 54.8241 31.3916 55.0487 31.228C55.0647 31.2124 55.0888 31.189 55.0888 31.1656C55.0888 31.1266 55.0888 31.0877 55.0888 31.0487C54.8081 31.0409 54.5354 31.0253 54.2628 31.0097C54.1425 31.2903 54.0222 31.5709 53.8378 31.8203C53.7816 31.8983 53.7335 31.984 53.7175 32.0854C53.6774 32.2958 53.5651 32.4673 53.3646 32.5842C53.1802 32.6933 53.0599 32.6699 52.9637 32.4829C52.659 31.9139 52.266 31.4072 51.857 30.9006C51.7688 30.7993 51.6806 30.6901 51.5924 30.5888C51.007 30.4407 50.4537 30.2615 49.9324 30.051C50.1409 30.1835 50.3334 30.3316 50.5259 30.4875C50.574 30.5265 50.6461 30.5576 50.6381 30.62C50.6221 30.7291 50.6542 30.7681 50.7664 30.7837C50.9108 30.8071 51.023 30.924 51.0792 31.0409C51.2235 31.3371 51.4721 31.5553 51.6886 31.7892C51.8731 31.984 51.9533 32.2334 52.0896 32.4517C52.242 32.6933 52.3141 32.9895 52.5226 33.2077C52.5868 33.2779 52.6189 33.3792 52.5948 33.4883C52.5547 33.6442 52.5707 33.8079 52.5707 33.9716C52.5707 34.0573 52.5627 34.1665 52.5146 34.221C52.2981 34.4315 52.242 34.7433 52.0014 34.9303C51.857 35.0472 51.8009 35.2109 51.7047 35.3512C51.4481 35.7331 51.1113 36.0527 50.8466 36.4191C50.5098 36.8867 50.0768 37.2375 49.6678 37.6194C49.2909 37.9701 48.9621 38.3599 48.5772 38.695C48.1281 39.077 47.6951 39.4823 47.1979 39.8018C46.8531 40.0279 46.5403 40.2929 46.2035 40.5345C46.0752 40.628 45.9068 40.5735 45.7865 40.6982C45.6101 40.8775 45.3535 40.9944 45.1771 41.1581C44.9445 41.3685 44.6398 41.4153 44.4393 41.6179C43.8298 40.8775 43.3327 40.1058 42.6029 39.5056C42.3704 39.3186 42.4185 39.038 42.6831 38.8665C42.7473 38.8275 42.7713 38.773 42.7793 38.7184C42.8114 38.391 43.068 38.204 43.2765 37.9935C43.3728 37.8922 43.477 37.8065 43.5331 37.674C43.6053 37.4869 43.6855 37.3076 43.9501 37.2998C44.0464 37.2998 44.0784 37.1907 44.0544 37.0972C44.0384 37.0348 44.0384 36.9335 44.0945 36.9413C44.319 36.988 44.2869 36.8633 44.2869 36.723C44.2869 36.6529 44.3591 36.5671 44.4233 36.5048C44.5436 36.3879 44.6398 36.2632 44.7039 36.1073C44.736 36.0137 44.8162 35.9436 44.9205 35.9046C44.9766 35.8812 45.0488 35.8501 45.0648 35.7877C45.153 35.3356 45.5379 35.055 45.7544 34.6809C45.9068 34.4159 46.1715 34.2054 46.2196 33.8859C46.5564 33.6286 46.6205 33.2155 46.829 32.8804C47.0135 32.5764 47.3102 32.327 47.3422 31.945C47.3422 31.9217 47.3583 31.8905 47.3743 31.8827C47.663 31.7424 47.639 31.4462 47.7512 31.2124C47.8635 30.9785 48.0399 30.7837 48.088 30.5187C48.1041 30.4251 48.1682 30.3316 48.2404 30.2615C48.3687 30.1289 48.4409 29.9886 48.473 29.8016C48.497 29.6535 48.5772 29.5366 48.6975 29.443C48.4489 29.3027 48.2083 29.1546 47.9838 28.991C47.8715 29.2014 47.8314 29.443 47.7111 29.6379C47.5347 29.9263 47.4706 30.2537 47.3102 30.5187C46.9814 31.0565 46.7729 31.6567 46.388 32.1789C46.1955 32.4361 46.0111 32.7245 45.8828 33.0441C45.7705 33.3247 45.5941 33.5975 45.4016 33.8391C45.1851 34.1119 45.0568 34.4393 44.8242 34.7043C44.5676 34.9849 44.3751 35.32 44.1586 35.6318C43.8699 36.0449 43.5011 36.4113 43.2605 36.8555C43.1562 37.0504 42.9477 37.1985 42.8034 37.3856C42.4987 37.7909 42.0656 38.1026 41.809 38.5547C41.7689 38.6249 41.4642 38.6561 41.3279 38.5781C41.1354 38.4612 40.8307 38.508 40.7665 38.2118C40.7665 38.1962 40.7264 38.1884 40.7024 38.1806C40.4137 38.126 40.117 38.0949 39.9405 37.822C39.9245 37.7987 39.8443 37.7987 39.7962 37.7987C39.5316 37.822 39.3311 37.674 39.1386 37.557C39.0344 37.4947 38.9462 37.4557 38.8259 37.4323C38.465 37.37 38.0881 37.331 37.8075 37.0582C37.7513 37.0036 37.6711 37.027 37.5909 37.0348C37.2862 37.0738 37.206 36.9958 37.214 36.6996C37.214 36.6373 37.2381 36.5749 37.2461 36.5282C37.19 36.1852 37.3183 35.8968 37.4867 35.6162C37.5909 35.4447 37.623 35.2421 37.631 35.0472C37.6471 34.7433 37.7433 34.4626 37.9037 34.2054C37.9438 34.1431 37.9999 34.0807 37.9919 34.0028C37.9277 33.5351 38.1042 33.1298 38.3207 32.7401C38.3688 32.6465 38.3447 32.5452 38.3528 32.4517C38.4009 32.062 38.3768 31.6567 38.7136 31.3527C38.7858 31.2903 38.7778 31.1968 38.7617 31.111C38.6334 30.5888 38.8099 30.1056 38.9943 29.6301C39.0504 29.4898 39.0905 29.3495 39.0985 29.2014C39.1226 28.6792 39.1787 28.1648 39.4594 27.7049C39.5075 27.6191 39.4995 27.5334 39.4835 27.4555C39.4193 27.0268 39.5556 26.6215 39.6599 26.2161C39.7561 25.8186 40.125 25.6316 40.558 25.7719C40.7906 25.8498 41.0552 25.8576 41.2557 26.0447C41.3519 26.1304 41.4963 26.1148 41.6246 26.1148C41.9614 26.1226 42.2822 26.185 42.5708 26.3564C42.5949 26.372 42.6109 26.3876 42.635 26.3954C43.076 26.45 43.485 26.6293 43.894 26.7851C43.9501 26.8085 44.0303 26.8007 44.0784 26.8319C44.5355 27.1125 45.0808 27.1671 45.546 27.4243C45.7144 27.5178 45.9309 27.4866 46.0832 27.6036C46.3078 27.7672 46.5483 27.8997 46.805 28.0167C46.404 27.6113 46.0431 27.1671 45.7304 26.6916C45.7224 26.6838 45.7144 26.6838 45.7063 26.676C45.6181 26.5981 45.4978 26.5981 45.3856 26.5747C45.161 26.5279 44.9445 26.4578 44.7681 26.3019C44.6959 26.2317 44.6238 26.2161 44.5275 26.2239C44.4553 26.2317 44.3591 26.2395 44.303 26.2084C43.8539 25.9433 43.3166 25.8888 42.8435 25.6783C42.4586 25.4991 42.0175 25.5224 41.6406 25.3432C41.3118 25.1951 40.959 25.1639 40.6222 25.0938V25.312H39.7641H36.9334C37.3343 25.3743 37.7273 25.3977 38.1362 25.3899C38.2325 25.3899 38.3367 25.4289 38.441 25.4445C38.7938 25.4991 38.9382 25.6627 38.9061 26.0057C38.8499 26.6215 38.7778 27.2372 38.5372 27.814C38.4811 27.9387 38.473 28.079 38.473 28.2193C38.4811 28.6636 38.3688 29.0767 38.2084 29.482C38.1844 29.5522 38.1443 29.6301 38.1523 29.6925C38.2244 30.0744 38.032 30.4173 37.9919 30.7837C37.9839 30.846 37.9678 30.9084 37.9358 30.9552C37.7754 31.1968 37.7513 31.4618 37.7112 31.7346C37.6952 31.8593 37.7032 31.9918 37.6551 32.1009C37.4065 32.631 37.4305 33.2389 37.214 33.7689C36.9815 34.3535 36.9895 35.0083 36.6768 35.5695C36.5484 35.7955 36.6046 36.0995 36.4843 36.3567C36.372 36.5905 36.0673 36.7854 35.8027 36.7542C34.7281 36.6295 33.6535 36.4892 32.5789 36.3879C32.0737 36.3411 31.5605 36.4424 31.0633 36.5204C30.7265 36.5749 30.5421 36.4658 30.5581 36.1462C30.5982 35.4214 30.2694 34.7666 30.2133 34.0651C30.2053 33.9638 30.1652 33.8703 30.1652 33.7689C30.2133 32.9505 29.9888 32.1711 29.8685 31.3761C29.8364 31.1422 29.8364 30.9006 29.8364 30.659H29.0425C29.0986 31.0955 29.1387 31.5319 29.1467 31.9684C29.1548 32.366 29.2189 32.7557 29.2991 33.1454C29.4274 33.7456 29.5878 34.3535 29.5718 34.9771C29.5718 35.0784 29.5637 35.1719 29.5477 35.2733C29.5156 35.4292 29.4515 35.5305 29.6439 35.702C29.8284 35.8579 29.8043 36.2086 29.7803 36.4814C29.7722 36.6061 29.652 36.6529 29.5397 36.6919C29.3633 36.7464 29.1868 36.7152 28.9623 36.723C28.7618 36.6841 28.5694 36.7698 28.3448 36.8867C28.1043 37.0114 27.8075 37.1205 27.5028 37.0972C27.3104 37.0816 27.1259 37.1283 26.9655 37.2453C26.8773 37.3076 26.7651 37.3622 26.6528 37.3778C26.308 37.4245 25.9952 37.4947 25.6985 37.6973C25.3296 37.9468 25.1612 37.8688 24.8485 37.5414C24.6079 37.292 24.4876 36.9725 24.2631 36.7152C24.223 36.6685 24.1909 36.6061 24.2069 36.5438C24.231 36.4268 24.223 36.3489 24.0626 36.3567C23.9744 36.3645 23.9182 36.2865 23.8942 36.2242C23.7899 35.889 23.4371 35.6786 23.4211 35.3122C23.4211 35.2577 23.3649 35.2343 23.3248 35.2109C23.2607 35.1641 23.1885 35.1252 23.1564 35.0628C22.9559 34.6263 22.6592 34.2366 22.4106 33.8235C22.3144 33.652 22.3625 33.4416 22.2182 33.2701C22.1781 33.2155 22.2021 33.1064 22.0738 33.1064C22.0578 33.1064 22.0257 33.0674 22.0337 33.0519C22.0498 32.6465 21.5366 32.4517 21.5847 32.0308C21.5927 31.9918 21.5366 31.9451 21.5045 31.9139C21.3361 31.7658 21.2479 31.5787 21.2318 31.3605C21.2318 31.3215 21.2238 31.2825 21.1997 31.2513C20.9592 30.9707 20.871 30.62 20.7346 30.2926C20.6304 30.051 20.486 29.8328 20.478 29.5677C20.478 29.5132 20.4379 29.4508 20.3978 29.4041C20.2134 29.1546 20.1011 28.8896 20.1172 28.5779C20.1252 28.4298 20.0209 28.3284 19.9407 28.2193C19.7804 27.9855 19.6119 27.7516 19.8926 27.4944C19.8605 27.2294 20.045 27.2294 20.2214 27.245C20.3096 27.2528 20.3657 27.2216 20.4139 27.1593C20.5903 26.9488 20.8309 26.8865 21.0955 26.8943C21.2559 26.8943 21.3762 26.8709 21.5125 26.7618C21.721 26.5981 21.9776 26.5201 22.2583 26.5201C22.4427 26.5201 22.5951 26.4812 22.7555 26.3876C23.1003 26.185 23.5012 26.146 23.9022 26.1382C24.0465 26.1382 24.1588 26.1148 24.2871 26.0291C24.3673 25.9745 24.4555 25.9355 24.5437 25.8966V25.1795C24.4796 25.1795 24.4074 25.1717 24.3433 25.1639C24.255 25.1483 24.1668 25.1561 24.0866 25.2029C23.7498 25.4211 23.3649 25.5069 22.964 25.5069C22.7795 25.5069 22.6111 25.5536 22.4507 25.6394C22.154 25.803 21.8333 25.8654 21.4965 25.881C21.3762 25.8888 21.288 25.9355 21.1837 25.9823C20.895 26.107 20.6224 26.3487 20.2615 26.185C20.1573 26.1382 20.1011 26.2317 20.053 26.3019C19.9888 26.3798 19.9407 26.4656 19.8365 26.5123C19.62 26.6137 19.4435 26.5357 19.3874 26.3097C19.3634 26.2084 19.3233 26.1226 19.2591 26.0447C19.1789 25.9433 19.1148 25.842 19.0666 25.7329C18.6897 26.9332 18.0803 27.9309 17.2543 28.726C17.2864 28.7182 17.3185 28.7104 17.3586 28.7182C17.3906 28.7182 17.4548 28.7026 17.4628 28.6792C17.5671 28.383 17.8798 28.3518 18.0963 28.1959C18.3128 28.04 18.5053 27.8296 18.81 28.0089C19.0827 27.8452 19.0747 28.0712 19.0747 28.2037C19.0747 28.4376 19.195 28.6012 19.2832 28.7961C19.4836 29.2092 19.636 29.6535 19.7964 30.09C19.8605 30.2692 19.8365 30.4797 20.0209 30.6122C20.037 30.6278 20.053 30.6512 20.061 30.6746C20.1653 31.1188 20.5021 31.4774 20.5742 31.9373C20.5823 31.984 20.5903 32.0464 20.6224 32.0776C20.9191 32.3192 20.9672 32.6933 21.1597 32.9973C21.2639 33.161 21.3601 33.3169 21.3281 33.5117C21.312 33.5897 21.3281 33.691 21.4002 33.6988C21.6408 33.73 21.6568 33.9092 21.6969 34.0729C21.729 34.1821 21.7691 34.2834 21.8573 34.3535C21.8974 34.3847 21.9375 34.4315 21.9455 34.4704C22.0337 34.829 22.3545 35.0706 22.4507 35.4292C22.4748 35.5305 22.571 35.5539 22.6191 35.6162C22.7234 35.7643 22.8517 35.9124 22.8036 36.1151C22.988 36.1696 23.1404 36.3021 23.1644 36.4658C23.2045 36.7542 23.4852 36.9023 23.5333 37.1751C23.5494 37.2764 23.6376 37.3076 23.7097 37.3544C23.83 37.4323 23.9343 37.5492 23.9343 37.6817C23.9343 37.8454 23.9904 37.9234 24.1428 37.9857C24.239 38.0247 24.2631 38.1416 24.231 38.2507C24.231 38.3832 24.1588 38.5002 24.0305 38.5235C23.7178 38.5781 23.5975 38.9444 23.2687 38.96C22.9399 39.4199 22.3385 39.5914 22.0498 40.098C21.9535 40.2695 21.8012 40.4098 21.6568 40.5501C21.4965 40.7138 21.3681 40.7216 21.1837 40.5891C20.2214 39.8486 19.2591 39.1081 18.4091 38.2429C18.0803 37.9078 17.7114 37.6038 17.4548 37.2063C17.3666 37.066 17.1982 36.988 17.0779 36.8477C16.8133 36.5438 16.5486 36.2398 16.3401 35.8968C16.2279 35.7176 16.0274 35.6084 15.9071 35.4292C15.7948 35.2655 15.6104 35.1564 15.6344 34.9225C15.6425 34.8524 15.5623 34.829 15.5142 34.79C15.3939 34.6965 15.2816 34.5952 15.3057 34.4237C15.3137 34.3224 15.2415 34.2678 15.1533 34.2366C15.0811 34.2054 14.9929 34.1743 14.9769 34.1041C14.8967 33.7612 14.6 33.5273 14.5278 33.1766C14.5037 33.0597 14.4636 32.9349 14.3353 32.8726C14.2311 32.818 14.183 32.7167 14.191 32.631C14.207 32.4673 14.183 32.3504 13.9985 32.2958C13.9424 32.2802 13.9264 32.1789 13.9825 32.1399C14.191 31.9918 14.207 31.7814 14.2231 31.5631C14.2231 31.5164 14.2471 31.4462 14.2792 31.4306C14.5037 31.3293 14.4797 31.0097 14.7203 30.9474C14.8726 30.9084 14.8806 30.7915 14.9528 30.7057C15.1212 30.5031 15.1854 30.1679 15.5542 30.1757C15.6585 30.1757 15.6665 30.1056 15.6585 30.0198C15.6505 29.9497 15.6585 29.8795 15.7146 29.8484C15.1693 30.1367 14.5759 30.3784 13.9103 30.5654C13.8782 30.5888 13.8622 30.62 13.8622 30.659C13.8542 30.9006 13.6296 30.8382 13.5013 30.9084C13.4853 30.9162 13.4372 30.9084 13.4372 30.8928C13.4051 30.8227 13.349 30.7759 13.2928 30.7291C13.0042 30.7915 12.7155 30.8538 12.4107 30.9006C12.4669 31.0643 12.5791 31.2591 12.6914 31.415C12.7957 31.5709 12.8678 31.7736 12.8357 31.9528C12.8197 32.0542 13.0523 32.3036 12.6994 32.288C12.6513 32.288 12.6834 32.3737 12.6994 32.4127C12.7395 32.4985 12.7475 32.592 12.6754 32.6543C12.3867 32.9116 12.3787 33.2935 12.2423 33.6208C12.1381 33.8547 11.9376 34.0495 11.9456 34.3301C11.9456 34.3847 11.8494 34.4003 11.7933 34.3535C11.7852 34.3457 11.7772 34.3379 11.7692 34.3223C11.689 34.1665 11.6249 34.0028 11.5286 33.8625C11.4645 33.7612 11.2961 33.7689 11.256 33.5975C11.1998 33.387 11.264 33.1532 11.1758 32.9817C11.0956 32.818 10.9352 32.6855 10.9031 32.4829C10.8711 32.288 10.8149 32.1009 10.847 31.8983C10.8711 31.7268 10.8069 31.5553 10.7267 31.3994C10.6706 31.2981 10.6305 31.189 10.5904 31.0877C10.2856 31.1032 9.98092 31.111 9.66016 31.111C9.74837 31.3527 9.78846 31.6099 9.77243 31.8827C9.76441 32.0074 9.75639 32.1399 9.83658 32.2412C10.1012 32.5608 10.1173 32.9505 10.1573 33.3325C10.1654 33.4416 10.1734 33.5663 10.2776 33.6364C10.4781 33.7689 10.5022 33.9872 10.4942 34.1665C10.4861 34.4315 10.5102 34.6497 10.7588 34.8056C10.8711 35.2343 11.1036 35.6162 11.256 36.0293C11.2881 36.1307 11.256 36.2476 11.256 36.3645C11.256 36.5438 11.4564 36.4268 11.5126 36.5282C11.5286 36.5594 11.5447 36.5983 11.5607 36.6295C11.665 36.7698 11.5206 36.9491 11.6008 37.0582C11.681 37.1673 11.8654 37.1985 11.9216 37.3466C12.0098 37.596 12.2423 37.7987 12.2744 38.0403C12.3145 38.3365 12.5471 38.469 12.6834 38.6872C12.6994 38.7106 12.7155 38.7262 12.7235 38.7496C12.7475 38.9211 12.8598 39.038 12.9641 39.1627C13.0603 39.2796 13.2207 39.3965 13.1886 39.5368C13.1244 39.7862 13.3811 39.7551 13.4532 39.872C13.5815 40.0824 13.7018 40.3007 13.8542 40.5111C13.9825 40.6826 14.1188 40.8619 14.2632 41.0178C14.4396 41.2048 14.5358 41.4465 14.7042 41.6257C15.033 41.9687 15.3698 42.3038 15.5703 42.7403C15.5943 42.7949 15.6585 42.8261 15.6986 42.8728C15.883 43.1067 16.1637 43.2314 16.3562 43.473C16.5326 43.6835 16.6609 43.9952 16.9897 44.0732C17.0619 44.0888 17.0699 44.1979 17.118 44.2524C17.2704 44.4317 17.3826 44.6578 17.6793 44.6967C17.8798 44.7279 18.1043 44.8916 18.1765 45.0709C18.2647 45.2735 18.361 45.3748 18.5695 45.406C18.6737 45.4216 18.7379 45.5074 18.8181 45.5775C19.1549 45.8893 19.5638 46.1231 19.9327 46.3881C20.47 46.7701 21.0554 47.0974 21.5927 47.4715C21.6328 47.5027 21.6809 47.5339 21.729 47.5339C21.9455 47.5495 22.1059 47.6742 22.2823 47.7755C22.5069 47.9002 22.7234 48.0561 22.9479 48.1575C23.2527 48.2978 23.5734 48.4225 23.8862 48.5706C24.2069 48.7187 24.5277 48.8979 24.8645 48.9681C25.2975 49.0616 25.6744 49.3032 26.1235 49.3812C26.5886 49.4591 27.0136 49.7163 27.5028 49.7397C27.7514 49.7553 27.984 49.8255 28.2005 49.9268C28.417 50.0281 28.6335 50.0671 28.8661 50.0515C29.3713 50.0203 29.8524 50.1762 30.3336 50.2697C30.7105 50.3399 31.0794 50.4178 31.4643 50.41C32.2261 50.3867 32.9959 50.4334 33.7578 50.3633C34.1026 50.3321 34.4394 50.4724 34.704 50.4334C35.0007 50.4178 35.2253 50.4412 35.4258 50.3633C35.939 50.1528 36.4923 50.145 37.0296 50.0827C37.3504 50.0437 37.6631 50.0203 37.9598 49.9034C38.3207 49.7631 38.6976 49.7085 39.0825 49.693C39.1868 49.6852 39.283 49.6774 39.3792 49.6384C39.9806 49.3812 40.5981 49.1629 41.2477 49.046C41.3279 49.0304 41.392 48.9993 41.4482 48.9447C41.6486 48.7576 41.9052 48.6797 42.1538 48.5861C42.4826 48.4614 42.7954 48.2978 43.1322 48.1886C43.3166 48.1263 43.461 47.8924 43.6695 47.9548C43.9983 48.0405 43.878 47.643 44.1025 47.6352C44.1506 47.6352 44.1907 47.5885 44.2388 47.5729C44.6157 47.456 44.9445 47.2221 45.2573 47.0195C45.7144 46.7155 46.1955 46.4349 46.6526 46.1309C47.0375 45.8737 47.3262 45.4528 47.8234 45.3593C47.8394 45.3593 47.8555 45.3281 47.8715 45.3047C47.9838 45.1176 48.1602 44.9929 48.3126 44.8448C48.7777 44.3927 49.347 44.0576 49.8041 43.5899C50.0848 43.2937 50.2853 42.904 50.7023 42.7403C50.7183 42.7325 50.7263 42.6936 50.7263 42.6702C50.7023 42.5065 50.8386 42.4208 50.9268 42.3272C51.2556 41.9921 51.5363 41.6179 51.9052 41.3139C51.9052 41.1035 52.1778 41.0957 52.2179 40.9398C52.3302 40.5345 52.675 40.2695 52.8675 39.911C52.9637 39.7317 53.0278 39.5056 53.2925 39.4667C53.3165 39.4667 53.3566 39.4043 53.3486 39.3809C53.2604 39.1939 53.4529 39.1237 53.517 39.0068C53.6052 38.8587 53.7255 38.7262 53.7415 38.5391C53.7496 38.4534 53.7977 38.3755 53.8618 38.3131C53.942 38.2274 54.0222 38.1806 54.1345 38.1338C54.2548 38.0871 54.0302 37.9546 54.1184 37.8454C54.1345 37.822 54.1345 37.7909 54.1585 37.7831C54.359 37.674 54.367 37.4713 54.4312 37.2842C54.4873 37.1283 54.5435 36.9491 54.7359 36.8789C54.8722 36.8322 54.8722 36.7308 54.8562 36.6061C54.8241 36.3723 54.8722 36.1618 55.1449 36.0839C55.2491 36.0527 55.2411 35.9904 55.2331 35.9124C55.193 35.6318 55.2812 35.398 55.4817 35.2031C55.586 35.094 55.6421 34.9849 55.61 34.8368C55.602 34.7822 55.618 34.7121 55.6341 34.6575C55.6822 34.4782 55.8907 34.3613 55.9147 34.1976C55.9388 34.0028 55.9228 33.8079 56.011 33.6208C56.0591 33.5117 56.0751 33.3792 56.1874 33.2935C56.2756 33.2233 56.2916 33.1298 56.2916 33.0285C56.2916 32.6232 56.4119 32.249 56.5964 31.8905C56.6445 31.797 56.6766 31.7112 56.6766 31.6099C56.6846 31.4462 56.7006 31.2903 56.7327 31.1344C56.3718 31.0409 56.0591 31.0487 55.7463 31.0487ZM41.3359 40.1214C41.4241 40.0279 41.4963 39.9265 41.6807 39.9733C42.0175 39.9187 42.2661 40.1448 42.4666 40.3708C42.7793 40.7138 43.1883 41.01 43.3327 41.4776C43.3487 41.5166 43.3968 41.5478 43.4369 41.579C43.6614 41.7972 43.6695 41.8751 43.5251 42.1246C43.485 42.1947 43.4449 42.2571 43.3487 42.2181C43.2444 42.1713 43.2124 42.2025 43.2284 42.3116C43.2364 42.335 43.1963 42.3974 43.1803 42.3974C42.7874 42.4441 42.5949 42.8884 42.1699 42.8728C41.8732 43.208 41.3519 43.1456 41.0472 43.4652C40.975 43.5432 40.8547 43.5821 40.7344 43.5977C40.6944 43.6055 40.6462 43.5977 40.6222 43.6133C40.2774 43.8783 39.8283 43.9251 39.4434 44.0966C39.0023 44.2914 38.5372 44.4629 38.0721 44.6188C37.8315 44.7045 37.5669 44.7045 37.3423 44.876C37.1579 45.0163 36.8852 45.0163 36.6447 45.0241C36.5164 45.0241 36.38 45.0085 36.2918 45.1722C36.2277 45.2891 36.0432 45.2657 35.9149 45.3125C35.8027 45.3515 35.6583 45.4528 35.5781 45.3125C35.5059 45.1878 35.6663 45.102 35.7305 44.9929C35.7465 44.9617 35.7786 44.9228 35.8107 44.9228C36.1234 44.8682 36.2437 44.572 36.4843 44.4239C36.6367 44.3304 36.765 44.2213 36.9253 44.1433C37.1579 44.0264 37.3022 43.7926 37.5348 43.6523C37.7994 43.4886 38.032 43.2703 38.2485 43.0521C38.6094 42.6858 39.0344 42.3818 39.4193 42.0466C40.1009 41.462 40.7024 40.7761 41.3359 40.1214ZM36.4201 39.038C36.5003 39.0068 36.4923 38.9211 36.4923 38.8431C36.5164 38.508 36.5244 38.165 36.9013 37.9935C36.9093 37.9857 36.9173 37.9779 36.9253 37.9701C37.1258 37.7207 37.1338 37.7129 37.4225 37.8532C37.599 37.939 37.7674 38.0091 37.9598 38.0325C38.2325 38.0637 38.5131 38.0715 38.7377 38.2819C38.7938 38.3365 38.9061 38.3521 38.9863 38.3599C39.275 38.391 39.5316 38.4612 39.716 38.7028C40.109 38.734 40.3816 39.0068 40.7184 39.1627C40.7505 39.1783 40.7906 39.1861 40.8227 39.1939C40.8788 39.5212 40.7264 39.7551 40.4778 39.9265C40.3255 40.0279 40.2693 40.1993 40.141 40.3241C39.8203 40.6436 39.4995 40.9788 39.1627 41.275C38.5613 41.805 38.032 42.4052 37.3423 42.8495C36.9414 43.1067 36.6046 43.4574 36.2197 43.7302C35.9229 43.9329 35.6503 44.1745 35.3055 44.3148C35.1772 44.3694 35.089 44.5408 34.9606 44.5876C34.7521 44.6656 34.5837 44.7747 34.4314 44.915C34.263 45.0709 34.1026 44.9306 33.9422 44.9228C33.9422 44.6578 34.1026 44.5876 34.3432 44.5486C34.1988 44.2602 34.3752 44.0498 34.4715 43.8004C34.6479 43.3561 34.8885 42.9352 35.0489 42.4753C35.1932 42.0622 35.3055 41.6257 35.5059 41.2438C35.6343 41.01 35.7144 40.7761 35.7786 40.5267C35.7866 40.5033 35.7866 40.4722 35.7946 40.4566C36.0031 40.1292 36.0753 39.7473 36.1956 39.3887C36.2517 39.2406 36.2598 39.1003 36.4201 39.038ZM25.7707 38.43C25.7947 38.4066 25.8428 38.3677 25.8669 38.3754C26.0995 38.4456 26.2358 38.2897 26.3881 38.1728C26.5165 38.0793 26.6688 38.0559 26.8212 38.0481C27.0537 38.0325 27.2542 37.9623 27.4627 37.8532C27.7274 37.7129 28.0321 37.5726 28.3689 37.6662C28.5293 37.7051 28.7057 37.7129 28.85 37.6194C29.0265 37.5025 29.2269 37.4791 29.4274 37.4479C29.692 37.4089 29.8043 37.4791 29.9246 37.7285C30.1171 38.1026 30.2374 38.5002 30.2374 38.8977C30.2374 39.3887 30.4218 39.8096 30.5501 40.2539C30.5661 40.3007 30.5982 40.3474 30.5982 40.3942C30.5661 40.9944 30.8548 41.5244 30.9831 42.0856C30.9992 42.1713 31.0072 42.2571 31.0232 42.3506C30.927 42.5611 31.0152 42.7247 31.1355 42.9196C31.2798 43.1456 31.3681 43.4262 31.3761 43.6912C31.3761 43.9641 31.4482 44.1979 31.5605 44.4395C31.6166 44.5642 31.6648 44.6967 31.6728 44.8292C31.6728 44.9228 31.6247 44.9929 31.5365 45.0397C31.4563 45.0865 31.3841 45.0319 31.336 44.9773C31.1195 44.7747 30.911 44.5642 30.6864 44.3538C30.51 44.1901 30.3175 44.0498 30.1491 43.8861C29.684 43.434 29.2029 42.9975 28.7779 42.5143C28.4892 42.1869 28.2005 41.8596 27.9198 41.54C27.6231 41.2048 27.3424 40.8541 27.0537 40.5111C26.9415 40.3786 26.7731 40.2929 26.7811 40.0824C26.7811 40.0201 26.725 40.0123 26.6688 40.0045C26.5886 39.9889 26.5245 39.9343 26.4924 39.872C26.316 39.5134 26.0433 39.225 25.7867 38.9211C25.7627 38.8743 25.7386 38.469 25.7707 38.43ZM22.4026 40.7294C22.7715 40.3396 23.1324 39.9499 23.5494 39.6148C23.6055 39.568 23.6777 39.5212 23.7498 39.5134C23.8942 39.4978 23.9744 39.4433 24.0466 39.3264C24.1187 39.2095 24.239 39.1159 24.3914 39.1315C24.5518 39.1471 24.6239 38.9834 24.8004 38.9834C24.8164 38.9912 24.8886 38.999 24.9046 39.0302C25.0489 39.264 25.3537 39.3731 25.4339 39.6537C25.482 39.8096 25.6504 39.8564 25.7306 39.9811C26.0193 40.4254 26.3962 40.7917 26.7089 41.2126C27.0618 41.6725 27.5028 42.07 27.7995 42.5766C27.9439 42.8261 28.2486 43.0053 28.4651 43.2314C29.0585 43.8471 29.652 44.4551 30.2935 45.0241C30.3897 45.1098 30.4619 45.1878 30.3897 45.3125C30.3175 45.4372 30.1812 45.4294 30.085 45.3671C29.7402 45.1566 29.3713 45.0241 28.9864 44.9072C28.7458 44.837 28.5774 44.6266 28.2807 44.6266C28.0882 44.6266 27.9759 44.3694 27.7995 44.2992C27.6311 44.2369 27.4146 44.2758 27.2622 44.1511C27.1099 44.0264 26.9014 44.0108 26.757 43.9017C26.4844 43.6913 26.1476 43.6367 25.8749 43.4652C25.482 43.2158 25.0489 43.0521 24.656 42.8105C24.1588 42.4987 23.6215 42.2337 23.1564 41.8751C22.9399 41.7115 22.6833 41.5868 22.4668 41.4231C22.1861 41.1892 22.154 40.9866 22.4026 40.7294ZM17.0538 41.8128C16.7491 41.7504 16.5887 41.4854 16.3481 41.3217C15.9472 41.0489 15.5863 40.745 15.2495 40.3942C15.0089 40.137 14.7283 39.8954 14.4636 39.6459C14.175 39.3653 13.8782 39.077 13.7018 38.695C13.5976 38.4768 13.4372 38.2741 13.3089 38.0637C13.0122 37.5882 12.8197 37.0816 12.7395 36.5438C12.6353 35.8423 12.6192 35.1408 12.7636 34.4393C12.8117 34.2132 13.0362 34.0418 13.0202 33.8391C13.0042 33.6131 13.0843 33.4338 13.1485 33.2311C13.1645 33.1688 13.1966 33.1142 13.2768 33.0752C13.3089 33.1766 13.1726 33.2545 13.2608 33.3714C13.365 33.3636 13.4452 33.2077 13.6056 33.3091C13.7419 33.3948 13.79 33.4961 13.8221 33.6364C13.8381 33.7066 13.8462 33.8079 13.8943 33.8391C14.1349 34.0184 14.2792 34.2288 14.215 34.5328C14.207 34.5796 14.2471 34.6419 14.3033 34.6419C14.5438 34.6497 14.5358 34.868 14.6401 34.9927C14.8325 35.2187 14.9769 35.4837 15.1693 35.702C15.5863 36.1696 15.8991 36.7152 16.3882 37.1128C16.5246 37.2219 16.4524 37.4713 16.6849 37.5103C16.7411 37.861 17.2463 37.8688 17.2864 38.2429C17.8557 38.5625 18.2246 39.1003 18.7138 39.4978C19.0907 39.8018 19.5638 40.0279 19.8204 40.4722C19.8365 40.5033 19.8766 40.5189 19.9167 40.5345C20.2615 40.6592 20.462 40.9632 20.7507 41.1581C21.0233 41.3451 21.0394 41.5712 20.9592 41.805C20.879 42.0466 20.8389 42.3038 20.7026 42.5377C20.5502 42.7871 20.6143 43.0911 20.5582 43.3717C20.5422 43.4574 20.5502 43.5432 20.5422 43.6289C20.5181 43.8004 20.454 43.8315 20.3257 43.7146C20.2214 43.6289 20.1412 43.551 19.9888 43.5821C19.9407 43.5899 19.8846 43.5743 19.8445 43.5432C19.5879 43.3405 19.2912 43.208 18.9945 43.0599C18.6416 42.8806 18.2888 42.6858 17.968 42.4519C17.6633 42.2259 17.2543 42.1635 17.0538 41.8128ZM21.5446 45.9594C21.4323 45.9516 21.4724 46.2166 21.304 46.0763C20.9512 45.7724 20.5021 45.6399 20.1172 45.3982C19.7162 45.1488 19.3634 44.8526 18.9704 44.5954C18.8501 44.5175 18.802 44.3772 18.6897 44.2992C18.4812 44.1433 18.3209 43.9407 18.0642 43.8315C17.7996 43.7146 17.6232 43.473 17.4307 43.2548C17.5751 43.1223 17.7114 43.1067 17.8638 43.247C18.1685 43.5276 18.6015 43.6133 18.9383 43.8549C18.9945 43.8939 19.0827 43.8861 19.1388 43.9563C19.2671 44.1277 19.4115 44.2447 19.652 44.1901C19.6841 44.1823 19.7322 44.1979 19.7563 44.2213C20.037 44.4083 20.3016 44.6032 20.6625 44.65C20.7507 44.6578 20.8068 44.7513 20.8389 44.8292C20.871 44.915 20.9271 44.9851 20.9993 45.0319C21.304 45.219 21.3281 45.6087 21.5847 45.8347C21.6248 45.8581 21.6488 45.9672 21.5446 45.9594ZM21.729 44.2524C21.705 44.2524 21.6809 44.2213 21.6729 44.2057C21.5285 43.738 21.1837 43.2859 21.5606 42.7715C21.6408 42.6702 21.6248 42.5377 21.5927 42.413C21.5686 42.3038 21.5125 42.1713 21.6408 42.109C21.7851 42.0388 21.9696 41.9687 22.1139 42.0934C22.563 42.4909 23.1885 42.6312 23.6135 43.0599C23.9423 43.0833 24.1187 43.3717 24.4154 43.4808C24.7362 43.6055 25.0329 43.8238 25.3457 43.9874C25.5301 44.081 25.7466 44.1433 25.915 44.268C26.332 44.5642 26.8452 44.6733 27.2703 44.9306C27.6953 45.1878 28.2486 45.2268 28.5854 45.6399C28.6415 45.71 28.7137 45.6944 28.7939 45.6788C28.8661 45.6632 28.9382 45.6321 29.0104 45.7256C28.8901 45.8113 28.7538 45.8269 28.6175 45.8035C28.1043 45.7256 27.575 45.71 27.0537 45.671C26.741 45.6477 26.4363 45.5463 26.1315 45.4528C26.0113 45.4138 25.891 45.3748 25.7627 45.3826C25.2334 45.406 24.7282 45.2969 24.2631 45.0475C24.1829 45.0007 24.0947 44.9929 24.0065 45.0085C23.8942 45.0319 23.7819 45.0085 23.6697 44.9851C23.2286 44.8838 22.8437 44.6188 22.3705 44.5876C22.13 44.5798 21.9856 44.2914 21.729 44.2524ZM23.6296 46.8012C23.3088 46.5908 22.996 46.3569 22.7394 46.0685C22.6913 46.014 22.6432 45.9516 22.5871 45.9049C22.3786 45.7646 22.2904 45.5775 22.3385 45.3047C22.4908 45.3125 22.6352 45.3359 22.7074 45.4216C22.8918 45.6399 23.1404 45.6477 23.389 45.6477C23.7017 45.6477 23.9824 45.7724 24.2551 45.8971C24.3513 45.9438 24.4475 45.975 24.5437 45.9594C24.9607 45.8893 25.3537 46.0452 25.7306 46.1699C26.2117 46.3336 26.7009 46.3569 27.1901 46.3959C27.5349 46.4271 27.8557 46.5518 28.2005 46.5674C28.2326 46.5674 28.2807 46.5908 28.3047 46.6142C28.4972 46.8246 28.7458 46.8402 29.0104 46.809C29.0505 46.8012 29.0826 46.8168 29.1066 46.8792C29.0345 47.0117 28.8901 46.9961 28.7618 47.0273C27.5509 47.2845 26.324 47.152 25.1051 47.1676C24.5919 47.1754 24.0706 47.0896 23.6296 46.8012ZM29.5637 49.1551C29.4675 49.2253 29.3953 49.2331 29.2911 49.1941C28.8981 49.0382 28.4812 48.9759 28.0642 48.9603C27.992 48.9603 27.9118 48.9369 27.8396 48.9135C27.5028 48.8044 27.2141 48.5706 26.8212 48.5939C26.7089 48.6017 26.5004 48.5472 26.4603 48.3289C26.4443 48.2354 26.2999 48.1653 26.1716 48.2042C26.1075 48.2198 26.0513 48.251 25.9872 48.2354C25.915 48.212 25.8188 48.212 25.8268 48.1107C25.8268 48.0405 25.907 48.025 25.9712 48.0172C26.316 47.9938 26.6608 47.9938 26.9976 47.947C27.5108 47.8769 28.0401 47.9314 28.5533 47.7677C28.6415 47.7366 28.7538 47.7599 28.8581 47.7677C29.1147 47.7989 29.3552 47.7521 29.6038 47.6664C29.9086 47.5573 30.2293 47.4404 30.5581 47.4404C30.6624 47.4404 30.7827 47.3702 30.8789 47.5339C30.935 47.6274 31.1114 47.5105 31.2478 47.5027C30.7345 48.1107 30.1973 48.6797 29.5637 49.1551ZM32.8757 49.3734C32.5709 49.3578 32.2662 49.3578 31.9615 49.3656C31.777 49.3656 31.6006 49.3812 31.4082 49.311C31.2558 49.2565 31.0473 49.3344 30.8629 49.3656C30.7907 49.3812 30.7185 49.4202 30.5982 49.35C30.7025 49.2721 30.8709 49.2721 30.8308 49.0928C30.8228 49.0538 30.8869 48.9837 30.927 48.9447C31.1916 48.6797 31.4643 48.4147 31.7369 48.1653C31.8893 48.025 32.0818 47.9236 32.1219 47.682C32.1379 47.5885 32.2021 47.5339 32.3464 47.5963C32.5709 47.6976 32.7073 47.8535 32.7955 48.0639C32.8997 48.3056 32.9799 48.5472 33.1323 48.7654C33.1964 48.859 33.2205 48.9603 33.2205 49.0772C33.2044 49.3656 33.1724 49.389 32.8757 49.3734ZM33.3568 44.2602C33.3087 44.2836 33.2686 44.3226 33.2686 44.3694C33.2846 44.6967 32.9639 44.837 32.8436 45.0942C32.7874 45.219 32.6832 45.2112 32.611 45.0942C32.5228 44.9617 32.4426 44.8214 32.4266 44.65C32.4025 44.3538 32.3143 44.0732 32.194 43.7926C32.0657 43.512 31.9695 43.208 32.0016 42.8962C32.0176 42.7637 31.9775 42.6624 31.9053 42.5455C31.753 42.296 31.6567 42.031 31.6648 41.7349C31.6648 41.462 31.6247 41.197 31.4883 40.9398C31.36 40.706 31.3039 40.4332 31.3119 40.1838C31.3199 39.7239 31.1195 39.3108 31.0152 38.8821C30.927 38.5391 30.919 38.1962 30.911 37.8532C30.8949 37.3388 30.8949 37.3544 31.4242 37.2842C31.7931 37.2375 32.162 37.2375 32.5308 37.2219C33.421 37.2608 34.3111 37.3232 35.2092 37.3076C35.3776 37.3076 35.538 37.37 35.6904 37.4245C35.8508 37.4791 35.963 37.6895 35.9229 37.8454C35.8347 38.2274 35.8187 38.6327 35.538 38.9522C35.5059 38.9912 35.5059 39.0692 35.4979 39.1315C35.4899 39.1939 35.4979 39.264 35.4739 39.3186C35.2413 39.8018 35.129 40.3241 34.9045 40.7995C34.8243 40.971 34.8243 41.1659 34.7441 41.3295C34.5677 41.7115 34.4554 42.1246 34.271 42.4831C34.0785 42.8417 33.9983 43.2548 33.7177 43.5665C33.6375 43.6523 33.6214 43.7926 33.5894 43.9095C33.5252 44.0576 33.5012 44.1901 33.3568 44.2602ZM36.9494 48.9681C36.773 49.1396 36.5565 49.2565 36.3079 49.2565C35.9069 49.2565 35.522 49.311 35.1371 49.389C34.8885 49.4435 34.6639 49.3344 34.4234 49.3032C34.3993 49.3032 34.3592 49.2721 34.3592 49.2643C34.4234 49.0148 34.1427 49.0226 34.0625 48.8823C33.9743 48.7265 33.8861 48.5784 33.8781 48.3991C33.87 48.2744 33.7578 48.212 33.7097 48.1185C33.6134 47.9314 33.4129 47.7521 33.6054 47.4871C33.7016 47.5651 33.5813 47.643 33.6696 47.7288C33.7898 47.682 33.9021 47.6664 34.0705 47.7366C34.4234 47.8924 34.7441 48.1419 35.1451 48.1808C35.1852 48.1886 35.2253 48.1886 35.2574 48.212C35.6904 48.5472 36.2437 48.4848 36.7329 48.6407C36.797 48.6563 36.8532 48.6719 36.9173 48.6953C37.0456 48.7654 37.0456 48.8745 36.9494 48.9681ZM42.5307 46.6921C42.1779 46.887 41.9293 47.2065 41.5925 47.417C41.1835 47.6742 40.7665 47.9002 40.3255 48.0795C40.0608 48.1886 39.7721 48.1653 39.4995 48.2042C38.8499 48.2822 38.2084 48.1653 37.5589 48.0639C37.3183 47.8379 37.0136 47.9314 36.7329 47.9236C36.4682 47.9158 36.2357 47.8067 36.0112 47.6976C35.8588 47.6196 35.7225 47.5573 35.5541 47.5417C35.3776 47.5261 35.2012 47.4715 35.0729 47.339C35.0168 47.2845 34.9606 47.2299 34.9927 47.1442C35.0168 47.0818 35.089 47.0662 35.1531 47.0584C35.2894 47.0506 35.4338 47.0351 35.5701 47.0429C36.3239 47.0818 37.0697 46.9103 37.8155 46.8792C38.5051 46.848 39.1787 46.6921 39.8523 46.6843C40.4297 46.77 40.943 46.5284 41.4802 46.4427C41.793 46.3881 42.1057 46.3336 42.4265 46.4037C42.4987 46.4193 42.5869 46.4193 42.619 46.505C42.6591 46.583 42.5949 46.6531 42.5307 46.6921ZM43.9421 44.65C43.8619 44.8682 43.6935 45.0475 43.5492 45.219C43.4369 45.3593 43.1883 45.3904 42.9798 45.3904C42.7713 45.3826 42.5869 45.4216 42.3944 45.5151C41.9453 45.7256 41.4482 45.6944 40.975 45.7568C40.8628 45.7724 40.7345 45.7568 40.6382 45.7957C40.125 46.014 39.5717 46.0062 39.0344 46.1075C38.7136 46.1699 38.3768 46.1153 38.04 46.1153V46.1231C37.7192 46.1231 37.3985 46.1387 37.0857 46.1153C36.9414 46.1075 36.7249 46.1153 36.7168 45.9283C36.7088 45.7568 36.9173 45.7334 37.0617 45.6866C37.1659 45.6554 37.2862 45.6632 37.3985 45.6399C37.5829 45.6009 37.7593 45.5697 37.9197 45.445C38.1122 45.2969 38.3608 45.2034 38.6334 45.2735C38.7537 45.3047 38.8179 45.2969 38.9061 45.1644C39.0103 45.0007 39.2188 44.9228 39.4273 44.9072C39.5877 44.8994 39.724 44.8526 39.8363 44.7357C39.8684 44.7045 39.9085 44.6656 39.9566 44.6422C40.1731 44.533 40.4538 44.6344 40.6382 44.4707C40.8146 44.3148 41.0151 44.2369 41.2236 44.1433C41.5604 43.9952 41.8812 43.8393 42.218 43.6912C42.6831 43.4886 43.0921 43.1534 43.6133 43.0521C43.7015 43.0365 43.7577 42.9508 43.8218 42.8962C43.9421 42.8027 44.0223 42.8572 44.0303 42.982C44.0464 43.551 44.1346 44.1121 43.9421 44.65ZM44.744 46.1231C44.6157 46.1231 44.6237 46.2712 44.5436 46.3336C44.3671 46.4895 44.1586 46.4427 44.1025 46.2322C44.0945 46.2011 44.0865 46.1309 44.0945 46.1231C44.3591 46.014 44.4072 45.6165 44.7841 45.6554C44.9365 45.671 45.0889 45.6632 45.2412 45.6087C45.1771 45.8893 45.0808 46.1153 44.744 46.1231ZM53.1241 36.5516C52.9877 36.9569 53.0519 37.3856 52.8995 37.7831C52.8354 37.9546 52.8434 38.1572 52.6429 38.2585C52.5868 38.2897 52.6028 38.3677 52.5948 38.43C52.5707 38.6015 52.5547 38.7808 52.3141 38.8119C52.2179 38.8197 52.2099 38.9133 52.2099 38.9834C52.2099 39.0614 52.2179 39.1315 52.1938 39.2017C52.1377 39.3653 51.9132 39.3342 51.857 39.4511C51.8009 39.5758 51.8651 39.7551 51.6806 39.8252C51.6004 39.8564 51.5764 39.9265 51.5443 39.9967C51.3919 40.3474 51.1514 40.6202 50.8306 40.8307C50.7825 40.8619 50.7504 40.8853 50.7504 40.9398C50.7424 41.0957 50.7103 41.236 50.5018 41.2516C50.4858 41.2516 50.4537 41.275 50.4457 41.2984C50.3174 41.7582 49.8763 41.9687 49.5956 42.3116C49.4513 42.4909 49.2268 42.6234 49.0343 42.7403C48.5531 43.0287 48.1201 43.3873 47.6229 43.6601C47.3102 43.8316 46.9333 43.9095 46.6686 44.1667C46.6205 44.2135 46.5323 44.2369 46.4521 44.2369C46.2115 44.2602 46.0191 44.346 45.8346 44.5019C45.7304 44.5954 45.6021 44.6578 45.4497 44.6344C45.2573 44.6032 45.0969 44.6733 44.9686 44.7981C44.9124 44.8526 44.8643 44.915 44.7761 44.8682C44.6959 44.8292 44.6799 44.7513 44.6879 44.6811C44.6879 44.611 44.6959 44.533 44.712 44.4629C44.8884 43.8627 44.8964 43.2704 44.7039 42.678C44.6719 42.5689 44.6959 42.4987 44.8002 42.3974C45.0808 42.1324 45.3936 41.9531 45.7304 41.7738C46.0271 41.6101 46.2677 41.3607 46.5564 41.1892C46.8932 40.9944 47.1498 40.6826 47.5267 40.5579C47.5989 40.5345 47.647 40.4722 47.6951 40.4098C47.7272 40.3708 47.7673 40.3396 47.7913 40.3007C47.8795 40.1448 48.1442 40.2929 48.1602 40.1682C48.1843 39.9967 48.2885 39.9343 48.4088 39.8798C48.6574 39.7629 48.8418 39.568 49.0102 39.3809C49.2909 39.0536 49.6598 38.8197 49.9004 38.469C49.9485 38.4066 50.0207 38.3755 50.1008 38.3832C50.157 38.391 50.2131 38.3677 50.2131 38.3131C50.2131 38.0013 50.5178 37.9078 50.6782 37.7129C50.9028 37.4479 51.2235 37.2686 51.424 36.9803C51.4481 36.9491 51.4801 36.9179 51.5122 36.9101C51.6646 36.8945 51.7047 36.8399 51.6967 36.6763C51.6886 36.4268 51.8891 36.2865 52.1858 36.271C52.1377 36.0605 52.1618 35.8734 52.4264 35.8111C52.4825 35.5695 52.7712 35.5617 52.8995 35.3902C52.9396 35.3434 53.0038 35.3122 53.0679 35.359C53.1161 35.3902 53.1241 35.4447 53.1161 35.4915C53.084 35.8423 53.2363 36.2164 53.1241 36.5516Z" fill="#FFFFFF"></path> <path d="M9.47547 24.556C9.76416 24.556 10.0288 24.5404 10.2533 24.5014C10.2614 24.4079 10.2373 24.3066 10.1812 24.2052C10.1411 24.1195 10.101 24.0182 10.2052 23.948C10.2774 23.9558 10.2934 24.0104 10.3014 24.0571C10.3255 24.1974 10.3496 24.3455 10.3736 24.4858C10.7184 24.4235 10.9831 24.3144 11.1595 24.1663C11.1675 24.1039 11.1755 24.0416 11.1836 23.9792C11.2156 23.8077 11.1996 23.6284 11.1194 23.4726C10.9029 23.0205 10.9109 22.5294 10.9109 22.054C10.9029 21.6798 11.1354 21.3525 11.392 21.0719C11.4803 20.9705 11.5444 20.877 11.5925 20.7523V19.5442C11.5765 19.6221 11.5123 19.6767 11.4482 19.7312C11.368 19.7936 11.2878 19.8482 11.2156 19.9261C11.1595 19.9885 11.1194 20.0898 11.0152 20.0508C10.9189 20.0118 10.9189 19.9105 10.9189 19.8248C10.9189 19.7858 10.9189 19.7468 10.9189 19.7858C10.951 19.4662 10.967 19.2246 10.9911 18.9752C10.9911 18.9362 11.0071 18.8816 11.0232 18.8738C11.36 18.8037 11.1836 18.5777 11.1675 18.414C11.1354 18.1646 11.1755 17.9307 11.2076 17.6813C11.2718 17.2526 11.5284 16.8785 11.5605 16.4498C11.5605 16.403 11.5765 16.3562 11.5925 16.3095V14.166C11.4482 14.5324 11.1755 14.8441 11.1274 15.2416C11.1194 15.2962 11.0713 15.3508 11.0312 15.3975C10.935 15.5067 10.8788 15.6236 10.8708 15.7639C10.8708 15.9042 10.8147 16.0289 10.7345 16.1458C10.5821 16.3796 10.4939 16.6368 10.4378 16.9019C10.3977 17.0967 10.3175 17.2838 10.2213 17.4553C10.1731 17.541 10.125 17.6267 10.117 17.7281C10.0529 18.3438 9.7802 18.9128 9.68397 19.5286C9.62783 19.9105 9.35518 20.2301 9.35518 20.6432C9.3632 21.2434 9.2349 21.8279 9.13065 22.4125C9.08253 22.6697 8.9462 22.9036 8.96224 23.1686C8.97828 23.6284 8.9863 24.0805 8.9863 24.5404C9.14668 24.5482 9.29905 24.556 9.47547 24.556Z" fill="#FFFFFF"></path> <path d="M53.3568 13.1299C53.3809 13.2546 53.445 13.3638 53.5332 13.4573C53.6295 13.5586 53.7016 13.6755 53.7417 13.8081C53.7818 13.9795 53.854 14.1354 53.9743 14.2679C53.9984 14.2991 54.0304 14.3303 54.0304 14.3615C54.0304 14.72 54.287 14.985 54.4153 15.2968C54.4795 15.4449 54.5356 15.593 54.4955 15.7645C54.4795 15.8424 54.4875 15.9281 54.5757 15.9437C54.7922 15.9905 54.8003 16.1698 54.8163 16.3179C54.8404 16.5205 54.8885 16.7076 55.0248 16.8635C55.0729 16.918 55.113 16.996 55.121 17.0661C55.1451 17.2142 55.1852 17.3623 55.2253 17.5026C55.3696 17.4948 55.522 17.487 55.6824 17.487C55.8588 17.487 56.0352 17.4948 56.1956 17.5104C56.1475 17.3233 56.0753 17.1363 55.9791 16.9492C55.8027 16.614 55.8027 16.1931 55.5621 15.8658C55.5781 15.3669 55.0569 15.0396 55.105 14.5251C55.105 14.5096 55.0809 14.4784 55.0649 14.4628C54.8243 14.2991 54.7682 14.0419 54.7201 13.7847C54.7121 13.7379 54.696 13.6833 54.6639 13.6522C54.3993 13.3949 54.3031 13.052 54.1507 12.7324C53.83 12.7558 53.5252 12.7948 53.2285 12.8415C53.2846 12.9273 53.3328 13.0208 53.3568 13.1299Z" fill="#FFFFFF"></path> <path d="M18.3195 14.9469C18.143 14.9313 18.127 15.1339 17.9506 15.1729C17.7661 14.4792 17.9345 13.8322 18.119 13.1931C18.127 13.1541 18.143 13.123 18.1511 13.084H17.3171C17.2689 13.2788 17.2369 13.4737 17.2208 13.6764C17.1888 14.1908 17.1326 14.713 17.0685 15.2275C17.0364 15.4613 16.9562 15.6951 16.6435 15.7185C16.5713 15.7263 16.5392 15.7731 16.4991 15.8276C16.467 15.8744 16.4189 15.9367 16.3628 15.9523C16.018 16.0147 15.7934 16.2641 15.4967 16.4122C15.2401 16.5369 14.9755 16.6772 14.767 16.8721C14.5585 17.0591 14.2698 17.1215 14.1014 17.3475C13.6523 17.4099 13.508 17.8464 13.1711 18.0568C12.8985 18.2283 12.6659 18.4465 12.4414 18.6726V19.8418C12.7301 19.4988 13.0509 19.187 13.4117 18.922C13.524 18.8363 13.5801 18.7038 13.6764 18.6102C13.9811 18.3062 14.3179 18.0568 14.6788 17.823C15.0075 17.6048 15.3844 17.4411 15.6731 17.1605C15.7212 17.1137 15.7854 17.0981 15.8415 17.0903C16.0019 17.0669 16.1302 16.9968 16.2345 16.8799C16.3147 16.7941 16.4189 16.7552 16.5312 16.7162C16.6354 16.6772 16.9161 16.8565 16.9241 16.9656C16.9482 17.3631 16.9642 17.7606 16.9963 18.1504C17.0524 18.7895 17.1246 19.4286 17.1968 20.0678C17.2208 20.2782 17.2048 20.4887 17.1968 20.7771C17.1166 21.2136 17.4053 21.6579 17.4694 22.1489C17.4935 22.3438 17.5897 22.5386 17.5737 22.7335C17.5416 23.1544 17.6378 23.5363 17.7982 23.9182C17.8383 24.0118 17.8784 24.1053 17.8784 24.2066C17.8784 24.6587 18.0548 25.064 18.1992 25.4849C18.3756 24.9393 18.4959 24.3547 18.5681 23.7156C18.4959 23.2479 18.2713 22.8114 18.2152 22.336C18.1912 22.1489 18.1511 21.9696 18.1671 21.7826C18.1831 21.5487 18.111 21.3227 18.0709 21.0889C17.9907 20.6368 17.8704 20.1925 17.8543 19.7326C17.8303 18.7194 17.8223 17.7061 17.7742 16.685C17.7661 16.459 17.9586 16.3109 17.9105 16.0926C17.9105 16.077 17.9586 16.0303 17.9907 16.0225C18.2393 15.9835 18.4317 15.812 18.6402 15.6951V14.9157C18.56 14.9469 18.4397 14.9546 18.3195 14.9469Z" fill="#FFFFFF"></path> <path d="M20.5157 15.0562C20.6039 14.9315 20.8444 14.8302 21.061 14.8536C21.2614 14.8692 21.4298 14.799 21.6063 14.7211C21.9591 14.573 22.312 14.4327 22.7129 14.5028C22.8252 14.5262 22.9054 14.4872 22.9936 14.4171C23.2823 14.191 23.6191 14.0819 23.988 14.1209C24.1884 14.1443 24.3568 14.0741 24.5252 14.004V13.1934C24.2205 13.2635 23.9238 13.3804 23.6111 13.4584C23.4908 13.4895 23.3625 13.5519 23.2422 13.5363C22.9535 13.5051 22.6969 13.5831 22.4483 13.7078C22.2398 13.8169 22.0233 13.8559 21.7907 13.8715C21.5902 13.8871 21.4058 13.9572 21.2213 14.0663C21.0209 14.1833 20.7723 14.2378 20.5397 14.2768C20.3473 14.3002 20.1708 14.3469 20.0024 14.4483C19.9784 14.4639 19.9543 14.4639 19.9383 14.4794C19.826 14.5964 19.6736 14.5886 19.5293 14.5808V15.3602C19.6977 15.2745 19.8741 15.2277 20.0746 15.2355C20.251 15.2355 20.3793 15.2355 20.5157 15.0562Z" fill="#FFFFFF"></path> <path d="M57.2609 22.2487C57.0283 21.6407 56.9802 20.9704 57.0043 20.3079C57.0043 20.2377 57.0444 20.1598 56.9802 20.0974C56.6675 19.7935 56.6915 19.3804 56.6274 19.0062C56.5953 18.8192 56.6755 18.6321 56.467 18.4762C56.4269 18.445 56.4028 18.4061 56.3868 18.3671C56.1622 18.3359 55.9297 18.3203 55.6811 18.3203C55.6169 18.3203 55.5528 18.3281 55.4967 18.3281C55.5127 18.3827 55.5287 18.4372 55.5448 18.484C55.5929 18.6711 55.5608 18.8425 55.5287 19.0296C55.4967 19.2167 55.7853 19.2556 55.8174 19.4661C55.8736 19.848 55.9698 20.2144 55.9778 20.6041C55.9778 20.6664 55.9938 20.7366 55.9698 20.7911C55.9137 20.9392 55.9297 21.1497 55.7452 21.1965C55.5608 21.2432 55.5368 21.025 55.4325 20.9237C55.24 20.7366 55.0797 20.5183 54.8631 20.3391C54.6947 20.2066 54.5263 20.0351 54.398 19.8636C54.2537 19.661 53.981 19.6064 53.8928 19.3336C53.8607 19.2323 53.564 19.2401 53.532 19.0296C53.4919 19.0218 53.4598 19.0062 53.4197 18.9906C53.3716 19.0296 53.3235 19.0686 53.2834 19.1076C53.131 19.2478 53.0107 19.4115 52.8984 19.5908C53.2834 19.926 53.6603 20.2533 54.0532 20.5807C54.4622 20.9237 54.783 21.3446 55.1117 21.7499C55.216 21.8746 55.2481 22.0383 55.4405 22.0928C55.5047 22.1162 55.5688 22.1941 55.5608 22.2721C55.5368 22.389 55.6089 22.4202 55.6891 22.4669C55.7372 22.4981 55.8174 22.5605 55.8094 22.5995C55.7533 22.8956 55.9778 23.0359 56.1382 23.2152C56.2184 23.301 56.2023 23.4257 56.2023 23.5348C56.1943 23.8699 56.1783 24.2051 56.1382 24.5325C56.6113 24.4935 57.0283 24.4 57.3812 24.2363C57.3812 23.9713 57.3812 23.7063 57.3812 23.4413C57.3812 23.0437 57.4293 22.6696 57.2609 22.2487Z" fill="#FFFFFF"></path> <path d="M41.4306 14.2676C41.7353 14.4469 42.0801 14.4703 42.4169 14.5093C42.4891 14.5171 42.5773 14.5171 42.6415 14.5482C43.1386 14.7821 43.692 14.8055 44.2052 14.9925C44.4698 15.086 44.7264 15.1718 44.9991 15.2263C45.1835 15.2653 45.368 15.3121 45.5203 15.4446C45.6406 15.5459 45.793 15.5771 45.9454 15.5849C46.0255 15.5849 46.0977 15.6005 46.1699 15.6161C46.3383 15.4056 46.5147 15.1952 46.7072 15.0003C46.5548 14.9458 46.4024 14.899 46.234 14.8756C46.1057 14.86 46.0015 14.7899 45.8892 14.7275C45.7689 14.6652 45.6406 14.5872 45.5043 14.5794C45.2156 14.5716 44.951 14.5015 44.7345 14.3066C44.6623 14.2443 44.566 14.2754 44.4778 14.2598C44.1651 14.2209 43.8523 14.1585 43.5637 14.0104C43.3311 13.8857 43.0825 13.8389 42.8259 13.8389C42.5773 13.8389 42.3447 13.7766 42.1282 13.6675C41.9197 13.5583 41.7032 13.496 41.4706 13.5272C41.3263 13.5505 41.206 13.5116 41.0938 13.4492V14.1975C41.1178 14.1975 41.1499 14.1897 41.1739 14.1975C41.2541 14.2209 41.3584 14.2287 41.4306 14.2676Z" fill="#FFFFFF"></path> </svg>